<svg xmlns="http://www.w3.org/2000/svg" xmlns:xlink="http://www.w3.org/1999/xlink" width="500" zoomAndPan="magnify" viewBox="0 0 375 374.999991" height="500" preserveAspectRatio="xMidYMid meet" version="1.0"><defs><clipPath id="a167dc49e3"><path d="M 124.652344 82.933594 L 274.652344 82.933594 L 274.652344 232.933594 L 124.652344 232.933594 Z M 124.652344 82.933594 " clip-rule="nonzero"/></clipPath></defs><g clip-path="url(#a167dc49e3)"><path fill="#2a2421" d="M 199.652344 82.933594 C 158.234375 82.933594 124.652344 116.519531 124.652344 157.933594 C 124.652344 199.351562 158.234375 232.933594 199.652344 232.933594 C 241.070312 232.933594 274.652344 199.351562 274.652344 157.933594 C 274.652344 116.519531 241.070312 82.933594 199.652344 82.933594 Z M 241.863281 146.359375 L 197.980469 190.242188 C 195.867188 192.355469 193.007812 193.542969 190.015625 193.542969 C 187.066406 193.542969 184.203125 192.355469 182.089844 190.242188 L 160.171875 168.324219 C 155.769531 163.921875 155.769531 156.835938 160.171875 152.433594 C 164.574219 148.078125 171.617188 148.078125 176.015625 152.433594 L 190.015625 166.472656 L 225.972656 130.515625 C 230.375 126.113281 237.460938 126.113281 241.863281 130.515625 C 246.21875 134.871094 246.21875 141.957031 241.863281 146.359375 Z M 241.863281 146.359375 " fill-opacity="1" fill-rule="nonzero"/></g><path fill="#ffffff" d="M 241.863281 146.359375 L 197.980469 190.242188 C 195.867188 192.355469 193.007812 193.542969 190.015625 193.542969 C 187.066406 193.542969 184.203125 192.355469 182.089844 190.242188 L 160.171875 168.324219 C 155.769531 163.921875 155.769531 156.835938 160.171875 152.433594 C 164.574219 148.078125 171.617188 148.078125 176.015625 152.433594 L 190.015625 166.472656 L 225.972656 130.515625 C 230.375 126.113281 237.460938 126.113281 241.863281 130.515625 C 246.21875 134.871094 246.21875 141.957031 241.863281 146.359375 Z M 241.863281 146.359375 " fill-opacity="1" fill-rule="nonzero"/></svg>